<svg width="400" height="400" viewBox="0 0 400 400" fill="none" xmlns="http://www.w3.org/2000/svg">
  <defs>
    <linearGradient id="bg" x1="56" y1="40" x2="332" y2="360" gradientUnits="userSpaceOnUse">
      <stop stop-color="#F8FBFF"/>
      <stop offset="1" stop-color="#EEF4FF"/>
    </linearGradient>
    <linearGradient id="panel" x1="126" y1="120" x2="274" y2="262" gradientUnits="userSpaceOnUse">
      <stop stop-color="#F7FAFF"/>
      <stop offset="1" stop-color="#E9F1FF"/>
    </linearGradient>
    <filter id="shadow" x="58" y="74" width="284" height="252" filterUnits="userSpaceOnUse" color-interpolation-filters="sRGB">
      <feDropShadow dx="0" dy="12" stdDeviation="18" flood-color="#A9BCD8" flood-opacity="0.18"/>
    </filter>
  </defs>
  <rect width="400" height="400" rx="36" fill="url(#bg)"/>
  <rect x="24" y="24" width="352" height="352" rx="28" stroke="#D9E6F7" stroke-width="2"/>
  <circle cx="320" cy="82" r="38" fill="#DBEAFE" fill-opacity="0.8"/>
  <circle cx="98" cy="314" r="50" fill="#EFF6FF"/>
  <g filter="url(#shadow)">
    <rect x="74" y="86" width="252" height="224" rx="34" fill="#FEFEFF"/>
    <rect x="74.75" y="86.75" width="250.5" height="222.5" rx="33.25" stroke="#D5E1F2" stroke-width="1.5"/>
  </g>
  <rect x="92" y="100" width="108" height="28" rx="14" fill="#1D4ED8"/>
  <text x="146" y="118" text-anchor="middle" fill="#FEFEFF" font-family="Outfit, Inter, Arial, sans-serif" font-size="12" font-weight="700" letter-spacing="1.8">PRODUCT</text>
  <rect x="110" y="128" width="180" height="126" rx="24" fill="url(#panel)" stroke="#C8D8EF" stroke-width="1.5"/>
  <path d="M152 191L200 166L248 191L200 216L152 191Z" fill="#BCD1EF"/>
  <path d="M152 191V234L200 260V216L152 191Z" fill="#DCE9FB"/>
  <path d="M248 191V234L200 260V216L248 191Z" fill="#C9DBF5"/>
  <path d="M200 166V216" stroke="#8EACD2" stroke-width="6" stroke-linecap="round"/>
  <path d="M176 178L224 203" stroke="#8EACD2" stroke-width="6" stroke-linecap="round"/>
  <rect x="126" y="274" width="148" height="12" rx="6" fill="#DBEAFE"/>
  <rect x="148" y="298" width="104" height="10" rx="5" fill="#E6EEFA"/>
  <text x="200" y="338" text-anchor="middle" fill="#64748B" font-family="Outfit, Inter, Arial, sans-serif" font-size="15" font-weight="600">Awaiting product media</text>
</svg>
