<svg width="640" height="720" viewBox="0 0 640 720" fill="none" xmlns="http://www.w3.org/2000/svg">
  <defs>
    <linearGradient id="shoe" x1="244" y1="320" x2="470" y2="452" gradientUnits="userSpaceOnUse">
      <stop stop-color="#B46DFF"/>
      <stop offset="1" stop-color="#6A4DFF"/>
    </linearGradient>
  </defs>
  <rect width="640" height="720" rx="36" fill="#0C0D15"/>
  <ellipse cx="320" cy="558" rx="176" ry="34" fill="#000000" fill-opacity="0.38"/>
  <path d="M192 410L302 298C328 272 370 266 404 284L500 334C516 342 518 364 504 374L420 430L368 466H256C220 466 188 438 192 410Z" fill="#151726" stroke="#39405A" stroke-width="8"/>
  <path d="M244 420L334 326C348 312 372 308 390 316L468 350L408 394H304L244 420Z" fill="url(#shoe)"/>
  <path d="M242 442H414L456 466H236L242 442Z" fill="#090A11"/>
  <path d="M250 470H458L486 492H216L250 470Z" fill="#E0DCE6"/>
</svg>
