<svg width="1200" height="900" viewBox="0 0 1200 900" fill="none" xmlns="http://www.w3.org/2000/svg">
  <defs>
    <linearGradient id="bg" x1="118" y1="48" x2="1094" y2="860" gradientUnits="userSpaceOnUse">
      <stop stop-color="#14110E"/>
      <stop offset="0.48" stop-color="#0B0B0D"/>
      <stop offset="1" stop-color="#18130E"/>
    </linearGradient>
    <radialGradient id="hero-glow" cx="0" cy="0" r="1" gradientUnits="userSpaceOnUse" gradientTransform="translate(866 216) rotate(126) scale(316 412)">
      <stop stop-color="#D7B23D" stop-opacity="0.34"/>
      <stop offset="1" stop-color="#D7B23D" stop-opacity="0"/>
    </radialGradient>
    <radialGradient id="ring-glow" cx="0" cy="0" r="1" gradientUnits="userSpaceOnUse" gradientTransform="translate(882 384) rotate(90) scale(96 220)">
      <stop stop-color="#E6C56A" stop-opacity="0.62"/>
      <stop offset="1" stop-color="#E6C56A" stop-opacity="0"/>
    </radialGradient>
    <linearGradient id="phone" x1="0" y1="0" x2="1" y2="1">
      <stop stop-color="#27211B"/>
      <stop offset="1" stop-color="#0D0C0A"/>
    </linearGradient>
    <linearGradient id="card" x1="0" y1="0" x2="1" y2="1">
      <stop stop-color="#221C16"/>
      <stop offset="1" stop-color="#070707"/>
    </linearGradient>
    <linearGradient id="chip" x1="0" y1="0" x2="1" y2="1">
      <stop stop-color="#F3D58B"/>
      <stop offset="1" stop-color="#AF7A2D"/>
    </linearGradient>
  </defs>

  <rect width="1200" height="900" rx="48" fill="url(#bg)"/>
  <rect x="36" y="36" width="1128" height="828" rx="34" stroke="#2E2418"/>
  <rect x="36" y="36" width="1128" height="64" rx="18" fill="#0B0B0D"/>
  <path d="M36 100H1164" stroke="#2A2117"/>

  <g transform="translate(70 56)">
    <rect x="0" y="0" width="34" height="14" rx="7" fill="#D7B23D"/>
    <rect x="38" y="0" width="34" height="14" rx="7" fill="#D7B23D"/>
    <rect x="0" y="18" width="34" height="14" rx="7" fill="#D7B23D"/>
    <rect x="38" y="18" width="34" height="14" rx="7" fill="#D7B23D"/>
    <text x="88" y="26" fill="#F3EFE6" font-size="26" font-family="Arial, sans-serif" font-weight="700" letter-spacing="0.1em">BOKMOO</text>
  </g>

  <g fill="#F3EFE6" font-size="18" font-family="Arial, sans-serif">
    <text x="250" y="74">Store</text>
    <text x="350" y="74" fill="#D7B23D">Coverage</text>
    <text x="490" y="74">How It Works</text>
    <text x="662" y="74">About Us</text>
    <text x="790" y="74">Support</text>
  </g>

  <g transform="translate(946 50)">
    <rect x="0" y="0" width="84" height="36" rx="10" fill="none" stroke="#5D4523"/>
    <text x="24" y="24" fill="#F3EFE6" font-size="16" font-family="Arial, sans-serif">Log In</text>
    <rect x="96" y="0" width="118" height="36" rx="10" fill="#D7B23D"/>
    <text x="122" y="24" fill="#14110E" font-size="16" font-family="Arial, sans-serif" font-weight="700">Get Started</text>
  </g>

  <text x="80" y="212" fill="#F3EFE6" font-size="74" font-family="Arial, sans-serif" font-weight="700">One Card.</text>
  <text x="80" y="286" fill="#F3EFE6" font-size="64" font-family="Arial, sans-serif" font-weight="700">Global Connection.</text>
  <text x="80" y="348" fill="#BEB6A7" font-size="30" font-family="Arial, sans-serif">Use multiple eSIM profiles on your BOKMOO card.</text>
  <text x="80" y="386" fill="#BEB6A7" font-size="30" font-family="Arial, sans-serif">Stay connected in 200+ countries.</text>

  <rect x="80" y="432" width="188" height="44" rx="10" fill="#D7B23D"/>
  <text x="104" y="460" fill="#14110E" font-size="18" font-family="Arial, sans-serif" font-weight="700">Shop eSIM Plans</text>
  <rect x="284" y="432" width="164" height="44" rx="10" fill="none" stroke="#6B512C"/>
  <text x="316" y="460" fill="#F3EFE6" font-size="18" font-family="Arial, sans-serif">How it works</text>

  <g fill="#F3EFE6" font-size="14" font-family="Arial, sans-serif">
    <text x="102" y="532">200+ Countries</text>
    <text x="102" y="552" fill="#9E9483">Coverage</text>
    <text x="268" y="532">Instant Delivery</text>
    <text x="268" y="552" fill="#9E9483">via eSIM</text>
    <text x="442" y="532">Secure &amp; Trusted</text>
    <text x="442" y="552" fill="#9E9483">Platform</text>
    <text x="636" y="532">24/7 Global</text>
    <text x="636" y="552" fill="#9E9483">Support</text>
  </g>

  <g>
    <rect x="682" y="128" width="348" height="286" rx="30" fill="url(#hero-glow)"/>
    <ellipse cx="894" cy="458" rx="166" ry="24" fill="url(#ring-glow)"/>
    <ellipse cx="894" cy="458" rx="198" ry="40" stroke="#8A6528" stroke-opacity="0.55"/>
    <ellipse cx="894" cy="458" rx="138" ry="24" stroke="#7A5820" stroke-opacity="0.4"/>

    <rect x="932" y="152" width="128" height="258" rx="24" fill="url(#phone)" stroke="#705229"/>
    <rect x="944" y="176" width="104" height="210" rx="18" stroke="#3E3120"/>
    <rect x="970" y="222" width="54" height="74" rx="12" fill="#111111" stroke="#5F4725"/>
    <rect x="984" y="238" width="24" height="34" rx="7" fill="#F0D38C"/>
    <text x="958" y="202" fill="#D7B23D" font-size="12" font-family="Arial, sans-serif" font-weight="700">BOKMOO</text>

    <g transform="translate(760 110) rotate(-8 120 170)">
      <rect x="0" y="0" width="220" height="340" rx="26" fill="url(#card)" stroke="#C29A49"/>
      <g transform="translate(42 28)">
        <rect x="0" y="0" width="28" height="12" rx="6" fill="#D7B23D"/>
        <rect x="32" y="0" width="28" height="12" rx="6" fill="#D7B23D"/>
        <rect x="0" y="16" width="28" height="12" rx="6" fill="#D7B23D"/>
        <rect x="32" y="16" width="28" height="12" rx="6" fill="#D7B23D"/>
        <text x="78" y="22" fill="#D7B23D" font-size="14" font-family="Arial, sans-serif" font-weight="700">BOKMOO</text>
      </g>
      <rect x="54" y="94" width="112" height="118" rx="18" fill="#121212" stroke="#6F5229"/>
      <rect x="76" y="120" width="68" height="54" rx="10" fill="url(#chip)"/>
      <rect x="46" y="104" width="128" height="138" rx="22" stroke="#3C2F1F"/>
      <text x="54" y="280" fill="#D7B23D" font-size="22" font-family="Arial, sans-serif" font-weight="700">YOUR GLOBAL PARTNER.</text>
      <text x="54" y="320" fill="#D7B23D" font-size="14" font-family="Arial, sans-serif">BOKMOO.COM</text>
    </g>
  </g>

  <rect x="80" y="590" width="1040" height="128" rx="18" fill="#14171C" stroke="#2F271D"/>
  <text x="112" y="636" fill="#F3EFE6" font-size="34" font-family="Arial, sans-serif" font-weight="700">Why Choose BOKMOO?</text>
  <text x="112" y="672" fill="#BEB6A7" font-size="20" font-family="Arial, sans-serif">Global coverage, instant activation, secure delivery, and travel-ready support.</text>

  <g>
    <rect x="80" y="742" width="500" height="112" rx="18" fill="#15191D" stroke="#30281F"/>
    <text x="108" y="788" fill="#F3EFE6" font-size="30" font-family="Arial, sans-serif" font-weight="700">eSIM Plans for Every Journey</text>
    <text x="108" y="824" fill="#D7B23D" font-size="20" font-family="Arial, sans-serif">Japan • United States • Europe • Hong Kong • Thailand</text>
  </g>
  <g>
    <rect x="606" y="742" width="514" height="112" rx="18" fill="#15191D" stroke="#30281F"/>
    <text x="634" y="788" fill="#F3EFE6" font-size="30" font-family="Arial, sans-serif" font-weight="700">How It Works</text>
    <text x="634" y="824" fill="#D7B23D" font-size="20" font-family="Arial, sans-serif">Get Your Card → Install Profile → Stay Connected</text>
  </g>
</svg>
