<svg width="1200" height="900" viewBox="0 0 1200 900" fill="none" xmlns="http://www.w3.org/2000/svg">
  <rect width="1200" height="900" rx="44" fill="#F7F8FC"/>
  <rect x="28" y="28" width="1144" height="844" rx="28" fill="#FBFCFF" stroke="#E9EDF7"/>

  <g transform="translate(56 52)">
    <path d="M0 26L44 0L31 49L21 32L0 26Z" fill="#6257FF"/>
    <path d="M10 26L35 9L21 32L0 26H10Z" fill="#8EA1FF"/>
    <text x="58" y="28" fill="#11162B" font-size="28" font-family="Arial, sans-serif" font-weight="800">Navto</text>
    <text x="147" y="28" fill="#6257FF" font-size="28" font-family="Arial, sans-serif" font-weight="800">AI</text>
    <text x="58" y="50" fill="#6F7890" font-size="12" font-family="Arial, sans-serif" font-weight="700">发现 · 探索 · 选择 AI 世界</text>
  </g>

  <rect x="256" y="56" width="520" height="46" rx="13" fill="white" stroke="#E8ECF7"/>
  <text x="292" y="85" fill="#A1AABC" font-size="15" font-family="Arial, sans-serif">搜索你想要的 AI 工具、应用或资源...</text>
  <circle cx="748" cy="79" r="8" stroke="#11162B" stroke-width="2"/>
  <path d="M754 85L763 94" stroke="#11162B" stroke-width="2" stroke-linecap="round"/>
  <text x="910" y="85" fill="#11162B" font-size="15" font-family="Arial, sans-serif" font-weight="700">提交项目</text>
  <text x="1018" y="85" fill="#11162B" font-size="15" font-family="Arial, sans-serif" font-weight="700">登录 / 注册</text>
  <circle cx="1132" cy="78" r="18" fill="#EEF0FF"/>

  <g transform="translate(56 136)">
    <rect x="0" y="0" width="166" height="36" rx="8" fill="#EEEAFE"/>
    <text x="54" y="24" fill="#6257FF" font-size="15" font-family="Arial, sans-serif" font-weight="800">首页</text>
    <text x="54" y="76" fill="#3D455D" font-size="15" font-family="Arial, sans-serif" font-weight="700">AI 工具</text>
    <text x="54" y="124" fill="#3D455D" font-size="15" font-family="Arial, sans-serif" font-weight="700">AI 应用</text>
    <text x="54" y="172" fill="#3D455D" font-size="15" font-family="Arial, sans-serif" font-weight="700">模型广场</text>
    <text x="54" y="220" fill="#3D455D" font-size="15" font-family="Arial, sans-serif" font-weight="700">资源教程</text>
    <text x="54" y="268" fill="#3D455D" font-size="15" font-family="Arial, sans-serif" font-weight="700">排行榜</text>
    <rect x="0" y="340" width="166" height="145" rx="16" fill="url(#promo)"/>
    <text x="18" y="370" fill="white" font-size="14" font-family="Arial, sans-serif" font-weight="800">发现 AI 的无限可能</text>
    <text x="18" y="402" fill="white" opacity=".8" font-size="11" font-family="Arial, sans-serif">在 NavtoAI，探索最优秀的 AI 项目。</text>
    <rect x="18" y="430" width="76" height="28" rx="14" fill="white"/>
    <text x="35" y="449" fill="#6257FF" font-size="11" font-family="Arial, sans-serif" font-weight="800">探索更多</text>
  </g>

  <rect x="248" y="136" width="884" height="226" rx="14" fill="url(#hero)"/>
  <text x="292" y="205" fill="white" font-size="42" font-family="Arial, sans-serif" font-weight="900">发现全球最好的</text>
  <text x="292" y="260" fill="#8C82FF" font-size="42" font-family="Arial, sans-serif" font-weight="900">AI 工具和资源</text>
  <text x="292" y="295" fill="#B9C0D8" font-size="17" font-family="Arial, sans-serif" font-weight="700">精选优质 AI 工具，提升效率，激发创意</text>
  <rect x="292" y="322" width="376" height="44" rx="9" fill="white"/>
  <text x="320" y="350" fill="#A1AABC" font-size="14" font-family="Arial, sans-serif">搜索 AI 工具、应用或关键词...</text>
  <rect x="676" y="326" width="72" height="36" rx="9" fill="#6257FF"/>
  <text x="700" y="350" fill="white" font-size="13" font-family="Arial, sans-serif" font-weight="800">搜索</text>

  <ellipse cx="930" cy="276" rx="172" ry="64" stroke="#6F66FF" opacity=".35"/>
  <ellipse cx="930" cy="276" rx="112" ry="42" stroke="#8EA1FF" opacity=".42"/>
  <rect x="870" y="184" width="126" height="126" rx="18" fill="url(#cube)" transform="rotate(45 933 247)"/>
  <text x="891" y="286" fill="#BFC7FF" font-size="72" font-family="Arial, sans-serif" font-weight="900">AI</text>

  <g transform="translate(248 378)">
    <rect width="134" height="56" rx="12" fill="white" stroke="#E9EDF7"/>
    <rect x="16" y="14" width="28" height="28" rx="8" fill="#EAF2FF"/>
    <text x="56" y="26" fill="#11162B" font-size="13" font-family="Arial, sans-serif" font-weight="800">对话聊天</text>
    <text x="56" y="43" fill="#8790A4" font-size="10" font-family="Arial, sans-serif">智能对话</text>
    <rect x="150" width="134" height="56" rx="12" fill="white" stroke="#E9EDF7"/>
    <rect x="166" y="14" width="28" height="28" rx="8" fill="#F1EDFF"/>
    <text x="206" y="26" fill="#11162B" font-size="13" font-family="Arial, sans-serif" font-weight="800">图像生成</text>
    <text x="206" y="43" fill="#8790A4" font-size="10" font-family="Arial, sans-serif">AI 绘画</text>
    <rect x="300" width="134" height="56" rx="12" fill="white" stroke="#E9EDF7"/>
    <rect x="316" y="14" width="28" height="28" rx="8" fill="#FFF1E8"/>
    <text x="356" y="26" fill="#11162B" font-size="13" font-family="Arial, sans-serif" font-weight="800">视频创作</text>
    <text x="356" y="43" fill="#8790A4" font-size="10" font-family="Arial, sans-serif">视频生成</text>
    <rect x="450" width="134" height="56" rx="12" fill="white" stroke="#E9EDF7"/>
    <rect x="466" y="14" width="28" height="28" rx="8" fill="#E9FBF7"/>
    <text x="506" y="26" fill="#11162B" font-size="13" font-family="Arial, sans-serif" font-weight="800">代码开发</text>
    <text x="506" y="43" fill="#8790A4" font-size="10" font-family="Arial, sans-serif">开发工具</text>
    <rect x="600" width="134" height="56" rx="12" fill="white" stroke="#E9EDF7"/>
    <rect x="616" y="14" width="28" height="28" rx="8" fill="#FFF6DC"/>
    <text x="656" y="26" fill="#11162B" font-size="13" font-family="Arial, sans-serif" font-weight="800">写作助手</text>
    <text x="656" y="43" fill="#8790A4" font-size="10" font-family="Arial, sans-serif">内容创作</text>
    <rect x="750" width="134" height="56" rx="12" fill="white" stroke="#E9EDF7"/>
    <rect x="766" y="14" width="28" height="28" rx="8" fill="#F2F4FB"/>
    <text x="806" y="26" fill="#11162B" font-size="13" font-family="Arial, sans-serif" font-weight="800">更多分类</text>
    <text x="806" y="43" fill="#8790A4" font-size="10" font-family="Arial, sans-serif">探索更多</text>
  </g>

  <text x="248" y="490" fill="#11162B" font-size="24" font-family="Arial, sans-serif" font-weight="900">🔥 热门推荐</text>
  <g transform="translate(248 512)">
    <rect width="160" height="142" rx="12" fill="white" stroke="#E9EDF7"/>
    <rect x="18" y="18" width="40" height="40" rx="9" fill="#32B284"/>
    <text x="72" y="40" fill="#11162B" font-size="18" font-family="Arial, sans-serif" font-weight="900">ChatGPT</text>
    <text x="72" y="60" fill="#8790A4" font-size="12" font-family="Arial, sans-serif">OpenAI</text>
    <text x="18" y="91" fill="#667086" font-size="12" font-family="Arial, sans-serif">最强大的 AI 对话助手</text>
    <text x="116" y="124" fill="#F5A11A" font-size="13" font-family="Arial, sans-serif" font-weight="800">★ 5.0</text>
    <rect x="178" width="160" height="142" rx="12" fill="white" stroke="#E9EDF7"/>
    <rect x="196" y="18" width="40" height="40" rx="9" fill="#FFFFFF" stroke="#E9EDF7"/>
    <text x="250" y="40" fill="#11162B" font-size="18" font-family="Arial, sans-serif" font-weight="900">Midjourney</text>
    <text x="250" y="60" fill="#8790A4" font-size="12" font-family="Arial, sans-serif">Midjourney</text>
    <text x="294" y="124" fill="#F5A11A" font-size="13" font-family="Arial, sans-serif" font-weight="800">★ 4.9</text>
    <rect x="356" width="160" height="142" rx="12" fill="white" stroke="#E9EDF7"/>
    <text x="428" y="40" fill="#11162B" font-size="18" font-family="Arial, sans-serif" font-weight="900">Notion AI</text>
    <text x="472" y="124" fill="#F5A11A" font-size="13" font-family="Arial, sans-serif" font-weight="800">★ 4.8</text>
    <rect x="534" width="160" height="142" rx="12" fill="white" stroke="#E9EDF7"/>
    <text x="606" y="40" fill="#11162B" font-size="18" font-family="Arial, sans-serif" font-weight="900">Cursor</text>
    <text x="650" y="124" fill="#F5A11A" font-size="13" font-family="Arial, sans-serif" font-weight="800">★ 4.9</text>
    <rect x="712" width="172" height="142" rx="12" fill="white" stroke="#E9EDF7"/>
    <text x="784" y="40" fill="#11162B" font-size="18" font-family="Arial, sans-serif" font-weight="900">Sora</text>
    <text x="838" y="124" fill="#F5A11A" font-size="13" font-family="Arial, sans-serif" font-weight="800">★ 4.8</text>
  </g>

  <rect x="248" y="684" width="280" height="128" rx="12" fill="white" stroke="#E9EDF7"/>
  <text x="270" y="720" fill="#11162B" font-size="22" font-family="Arial, sans-serif" font-weight="900">📈 排行榜</text>
  <text x="270" y="760" fill="#11162B" font-size="16" font-family="Arial, sans-serif" font-weight="800">1  ChatGPT</text>
  <text x="270" y="790" fill="#11162B" font-size="16" font-family="Arial, sans-serif" font-weight="800">2  Midjourney</text>
  <rect x="552" y="684" width="360" height="128" rx="12" fill="white" stroke="#E9EDF7"/>
  <text x="574" y="720" fill="#11162B" font-size="22" font-family="Arial, sans-serif" font-weight="900">📰 最新资讯</text>
  <text x="574" y="760" fill="#667086" font-size="14" font-family="Arial, sans-serif">OpenAI 发布 GPT-4o：更强大、更智能</text>
  <text x="574" y="790" fill="#667086" font-size="14" font-family="Arial, sans-serif">Midjourney V6 正式发布</text>
  <rect x="936" y="684" width="196" height="128" rx="12" fill="white" stroke="#E9EDF7"/>
  <text x="958" y="720" fill="#11162B" font-size="22" font-family="Arial, sans-serif" font-weight="900">⭐ 热门标签</text>
  <text x="958" y="760" fill="#6257FF" font-size="13" font-family="Arial, sans-serif" font-weight="800"># 对话聊天  # 图像生成</text>
  <text x="958" y="790" fill="#17A88D" font-size="13" font-family="Arial, sans-serif" font-weight="800"># 代码开发  # 生产力</text>

  <defs>
    <linearGradient id="hero" x1="248" y1="136" x2="1132" y2="362" gradientUnits="userSpaceOnUse">
      <stop stop-color="#060A2A"/>
      <stop offset="0.58" stop-color="#0E1238"/>
      <stop offset="1" stop-color="#160A32"/>
    </linearGradient>
    <linearGradient id="cube" x1="870" y1="184" x2="1016" y2="310" gradientUnits="userSpaceOnUse">
      <stop stop-color="#27276B"/>
      <stop offset="0.54" stop-color="#624BFF"/>
      <stop offset="1" stop-color="#30D7FF"/>
    </linearGradient>
    <linearGradient id="promo" x1="0" y1="340" x2="166" y2="485" gradientUnits="userSpaceOnUse">
      <stop stop-color="#5870FF"/>
      <stop offset="1" stop-color="#8A7DFF"/>
    </linearGradient>
  </defs>
</svg>
