<svg width="1200" height="900" viewBox="0 0 1200 900" fill="none" xmlns="http://www.w3.org/2000/svg">
  <defs>
    <linearGradient id="bg" x1="0" y1="0" x2="1200" y2="900" gradientUnits="userSpaceOnUse">
      <stop stop-color="#F8FCFF"/>
      <stop offset="1" stop-color="#EAF5FF"/>
    </linearGradient>
    <linearGradient id="blue" x1="820" y1="128" x2="1040" y2="650" gradientUnits="userSpaceOnUse">
      <stop stop-color="#2A7BFF"/>
      <stop offset="1" stop-color="#0A46B6"/>
    </linearGradient>
    <filter id="cardShadow" x="46" y="66" width="1108" height="756" filterUnits="userSpaceOnUse" color-interpolation-filters="sRGB">
      <feDropShadow dx="0" dy="30" stdDeviation="38" flood-color="#0F376E" flood-opacity="0.14"/>
    </filter>
    <pattern id="dots" width="18" height="18" patternUnits="userSpaceOnUse">
      <circle cx="4" cy="4" r="2" fill="#156BFF" opacity="0.52"/>
    </pattern>
  </defs>
  <rect width="1200" height="900" rx="58" fill="url(#bg)"/>
  <circle cx="1010" cy="116" r="226" fill="#156BFF" opacity="0.12"/>
  <circle cx="104" cy="178" r="176" fill="#68D3FF" opacity="0.22"/>
  <g filter="url(#cardShadow)">
    <rect x="92" y="110" width="1016" height="660" rx="44" fill="white" stroke="#DBE9F8" stroke-width="2"/>
  </g>
  <rect x="136" y="154" width="928" height="62" rx="31" fill="#FFFFFF" stroke="#DBE9F8"/>
  <rect x="162" y="168" width="34" height="34" rx="13" fill="#156BFF"/>
  <circle cx="190" cy="174" r="10" fill="white" opacity="0.22"/>
  <text x="212" y="194" fill="#156BFF" font-size="26" font-family="Manrope, Arial, sans-serif" font-weight="900" letter-spacing="-1.2">Yevbi</text>
  <text x="452" y="190" fill="#2B456C" font-size="15" font-family="Manrope, Arial, sans-serif" font-weight="800">Destinations</text>
  <text x="580" y="190" fill="#2B456C" font-size="15" font-family="Manrope, Arial, sans-serif" font-weight="800">Plans</text>
  <text x="665" y="190" fill="#2B456C" font-size="15" font-family="Manrope, Arial, sans-serif" font-weight="800">How it works</text>
  <rect x="870" y="166" width="72" height="38" rx="19" fill="#EDF6FF" stroke="#DBE9F8"/>
  <text x="891" y="191" fill="#081F46" font-size="14" font-family="Manrope, Arial, sans-serif" font-weight="900">USD</text>
  <text x="964" y="191" fill="#2B456C" font-size="15" font-family="Manrope, Arial, sans-serif" font-weight="900">Login</text>
  <rect x="1024" y="166" width="88" height="38" rx="19" fill="#156BFF"/>
  <text x="1045" y="191" fill="#FFFFFF" font-size="15" font-family="Manrope, Arial, sans-serif" font-weight="900">Sign up</text>

  <text x="138" y="304" fill="#156BFF" font-size="15" font-family="Manrope, Arial, sans-serif" font-weight="900" letter-spacing="3">WEB HOME</text>
  <text x="138" y="402" fill="#081F46" font-size="88" font-family="Manrope, Arial, sans-serif" font-weight="900" letter-spacing="-6">Data that lands</text>
  <text x="138" y="494" fill="#081F46" font-size="88" font-family="Manrope, Arial, sans-serif" font-weight="900" letter-spacing="-6">before you do.</text>
  <text x="142" y="552" fill="#6F8198" font-size="25" font-family="Manrope, Arial, sans-serif" font-weight="700">Global eSIM plans, selected with care.</text>
  <rect x="140" y="606" width="158" height="48" rx="24" fill="#156BFF"/>
  <text x="173" y="637" fill="#FFFFFF" font-size="16" font-family="Manrope, Arial, sans-serif" font-weight="900">Browse plans</text>
  <rect x="316" y="606" width="154" height="48" rx="24" fill="#FFFFFF" stroke="#B6D4F3"/>
  <text x="351" y="637" fill="#081F46" font-size="16" font-family="Manrope, Arial, sans-serif" font-weight="900">View featured</text>

  <rect x="128" y="704" width="944" height="92" rx="34" fill="#FFFFFF" stroke="#DBE9F8"/>
  <rect x="152" y="724" width="304" height="52" rx="20" fill="#EDF6FF"/>
  <text x="176" y="756" fill="#081F46" font-size="18" font-family="Manrope, Arial, sans-serif" font-weight="900">Where are you going?</text>
  <rect x="472" y="724" width="178" height="52" rx="20" fill="#EDF6FF"/>
  <text x="504" y="756" fill="#081F46" font-size="18" font-family="Manrope, Arial, sans-serif" font-weight="900">10GB</text>
  <rect x="666" y="724" width="178" height="52" rx="20" fill="#EDF6FF"/>
  <text x="696" y="756" fill="#081F46" font-size="18" font-family="Manrope, Arial, sans-serif" font-weight="900">30 days</text>
  <rect x="864" y="724" width="184" height="52" rx="26" fill="#156BFF"/>
  <text x="925" y="756" fill="#FFFFFF" font-size="18" font-family="Manrope, Arial, sans-serif" font-weight="900">Search</text>

  <rect x="690" y="268" width="340" height="332" rx="44" fill="#F8FCFF" stroke="#DBE9F8"/>
  <path d="M724 418C786 376 856 372 925 414C970 441 1005 438 1030 406" stroke="#156BFF" stroke-opacity="0.35" stroke-width="3" stroke-dasharray="10 11"/>
  <ellipse cx="780" cy="390" rx="72" ry="44" fill="url(#dots)" opacity="0.82"/>
  <ellipse cx="910" cy="374" rx="96" ry="54" fill="url(#dots)" opacity="0.74"/>
  <ellipse cx="860" cy="470" rx="76" ry="54" fill="url(#dots)" opacity="0.70"/>
  <circle cx="780" cy="390" r="7" fill="#156BFF"/>
  <circle cx="910" cy="374" r="7" fill="#156BFF"/>
  <circle cx="860" cy="470" r="7" fill="#156BFF"/>
  <rect x="724" y="300" width="164" height="76" rx="26" fill="#FFFFFF" stroke="#DBE9F8"/>
  <text x="748" y="329" fill="#6F8198" font-size="13" font-family="Manrope, Arial, sans-serif" font-weight="900" letter-spacing="2">YEVBI</text>
  <text x="748" y="356" fill="#081F46" font-size="22" font-family="Manrope, Arial, sans-serif" font-weight="900">190+ live</text>
  <rect x="820" y="514" width="168" height="56" rx="24" fill="url(#blue)"/>
  <text x="850" y="549" fill="#FFFFFF" font-size="19" font-family="Manrope, Arial, sans-serif" font-weight="900">Japan 10GB</text>
</svg>
